# xmcd CD database file
#
# Track frame offsets:
#	150
#	10445
#	22157
#	33992
#	45740
#	58395
#	71102
#	80077
#	92250
#	103590
#	116705
#	126282
#	137180
#	147862
#
# Disc length: 2185 seconds
#
# Revision: 0
# Processed by: cddbd v1.5PL3 Copyright (c) Steve Scherf et al.
# Submitted via: CDex 1.50
#
DISCID=cf08870e
DTITLE=Manu Galvin - Acoustic Blues Guitar
DYEAR=1997
DGENRE=Blues
TTITLE0=How Cold Is The Night
TTITLE1=Street Corner Jump
TTITLE2=On A Georgia Road
TTITLE3=Shake It Or Leave It
TTITLE4=Last Encore Blues
TTITLE5=The Groom In Philadelphia
TTITLE6=Slide Mama Slide
TTITLE7=Plantation Waltz
TTITLE8=The Twelve Apostles Blues
TTITLE9=Both Feet In The Mud
TTITLE10=Rambling Victrola
TTITLE11=Red Beans and Rice
TTITLE12=Old Mississippi Blues
TTITLE13=Low and Troubled
EXTD=YEAR: 1997
EXTT0=
EXTT1=
EXTT2=
EXTT3=
EXTT4=
EXTT5=
EXTT6=
EXTT7=
EXTT8=
EXTT9=
EXTT10=
EXTT11=
EXTT12=
EXTT13=
PLAYORDER=
